# xmcd
#
# Track frame offsets:
#	182
#	12847
#	25752
#	43065
#	53657
#	66495
#	78417
#	90262
#	101125
#	113440
#	122095
#	138692
#	153005
#	164447
#
# Disc length: 2343
#
# Revision: 3
# Processed by: cddbd v1.5.1PL0 Copyright (c) Steve Scherf et al.
# Submitted via: audiograbber 1.81.03
# Normalized: r2:DSETVAR1
#
DISCID=ab09250e
DTITLE=Various Artist - Country Hits - volume 3
DYEAR=1900
DGENRE=
TTITLE0=Kitty Wells - Making Believe
TTITLE1=Johnny Cash - Prison Blues
TTITLE2=Kenny Rogers - Something's Burning
TTITLE3=George Jones - Walk Through This World With Me
TTITLE4=Bobby Helms - Fraulein
TTITLE5=Willie Nelson - Night Life
TTITLE6=Waylon Jennings - Crying
TTITLE7=Kenny Rogers - We All Got To Help Each Other
TTITLE8=Dolly Parton - Two Little Orphans
TTITLE9=Waylon Jennings - Abilene
TTITLE10=Ferlin Husky - Blues In My Heart
TTITLE11=Kenny Rogers - It's Raining In My Heart
TTITLE12=Johnny Paycheck - Release Me
TTITLE13=Sir Douglas Quintet - Anybody Goin' To San Antone
EXTD=
EXTT0=Kitty Wells
EXTT1=Johnny Cash
EXTT2=Kenny Rogers
EXTT3=George Jones
EXTT4=Bobby Helms
EXTT5=Willie Nelson
EXTT6=Waylon Jennings
EXTT7=Kenny Rogers
EXTT8=Dolly Parton
EXTT9=Waylon Jennings
EXTT10=Ferlin Husky
EXTT11=Kenny Rogers
EXTT12=Johnny Paycheck
EXTT13=Sir Douglas Quintet
PLAYORDER=
